<svg xmlns="http://www.w3.org/2000/svg" viewBox="0 0 436.01 402.85"><defs><style>.cls-1{fill:#dbd2da;}.cls-2{fill:#fff;}.cls-3{fill:#ed1c24;}.cls-4{fill:#181404;}.cls-5{fill:#f4edf1;}.cls-6{fill:#b8a6b4;}.cls-7{fill:#968392;}.cls-8{fill:#c6b3c2;}.cls-9{fill:#c5bbc2;}.cls-10{fill:#eae1e6;}.cls-11{fill:#d9c3d4;}.cls-12{fill:#ddd5dc;}.cls-13{fill:#8e808d;}.cls-14{fill:#a396a2;}.cls-15{fill:#c6b9c4;}.cls-16{fill:#94808b;}.cls-17{fill:#eae5e9;}.cls-18{fill:#a3c46e;}.cls-19{fill:#da7991;}.cls-20{fill:#d9cfd6;}.cls-21{fill:#624354;}.cls-22{fill:#9e7e91;}.cls-23{fill:#513747;}.cls-24{fill:#cec4cb;}.cls-25{fill:#715566;}</style></defs><g id="Layer_2" data-name="Layer 2"><g id="Drapeau"><g id="Drapeau-2" data-name="Drapeau"><path class="cls-1" d="M210.52,402.85a5.69,5.69,0,0,0,5.69-5.69V5.69a5.69,5.69,0,1,0-11.37,0V397.16A5.68,5.68,0,0,0,210.52,402.85Z"/><rect class="cls-2" x="0.26" y="5.6" width="210.66" height="111.37" transform="translate(211.19 122.56) rotate(-180)"/><rect class="cls-3" x="172.94" y="5.6" width="37.73" height="111.37" transform="translate(383.6 122.56) rotate(-180)"/><rect class="cls-3" y="5.6" width="37.73" height="111.37" transform="translate(37.73 122.56) rotate(-180)"/><path class="cls-4" d="M104.15,107.3a4.55,4.55,0,0,1,0-.52,63.46,63.46,0,0,0,.93-7.53,19.91,19.91,0,0,0-.13-4c-.09-.64-.11-.65-.62-.3a12,12,0,0,0-1.52,1.23,18,18,0,0,0-4.09,6.65c-.46,1.21-.81,2.46-1.21,3.8-1.82-2.26-2.45-4.88-2.94-7.55a27,27,0,0,1-.34-8.19A9,9,0,0,0,91.71,93,11.36,11.36,0,0,0,89.46,98c-.08.37-.2.44-.51.2a3.68,3.68,0,0,1-1.18-1.65,14.1,14.1,0,0,1-.85-3.9,39.61,39.61,0,0,1-.12-4.23c-2.72,1.79-4.41,3.44-5.26,6.33a7.23,7.23,0,0,1-.63-2c-.83-4.42.09-8.67,1.3-12.9a13.16,13.16,0,0,0-5.45,6.87c-.93-7.15.61-14,3-20.73a16.8,16.8,0,0,0-3,3c-.91,1.09-1.71,2.27-2.53,3.43a38.64,38.64,0,0,1,1.46-6.58,42.26,42.26,0,0,1,2.59-6.36l-5.67,2.44c.43-1.57.83-3,1.23-4.45.25-.9.24-.89-.62-1.24-2.82-1.15-4.86-3-5.52-6.12a2.39,2.39,0,0,0-1.1-1.67A9.58,9.58,0,0,1,64,45.8a5.72,5.72,0,0,1-.78-5.51,12,12,0,0,1,13.44-7.8c1,.17.93.17,1.39-.67a35.25,35.25,0,0,1,14.58-14.5,15.8,15.8,0,0,1,9-2,5.67,5.67,0,0,1,4.88,3.36,10.65,10.65,0,0,1,.87,2.81,30.38,30.38,0,0,1-.15,9.47c-.42,3.1-1.17,6.14-1.81,9.2-.06.28-.16.34-.41.32l-1.27-.07a26.23,26.23,0,0,0-9.65,1A10.75,10.75,0,0,0,87,47.84,16.93,16.93,0,0,0,86,54.11a13.74,13.74,0,0,0,.88,5.43,5.19,5.19,0,0,0,3.2,3.17,5.53,5.53,0,0,0,1.62.2,13.61,13.61,0,0,0-1.11,1.6,9.88,9.88,0,0,0,0,9.56,1.54,1.54,0,0,0,.54.62,51.42,51.42,0,0,0,5.88,3.53,13,13,0,0,0,4,1.48,70.62,70.62,0,0,0,9.65.42,14.29,14.29,0,0,0,7-2,4.62,4.62,0,0,0,2.4-3.46,7.33,7.33,0,0,0,.13-.94c.19-2.76-.28-5.32-2.32-7.43.46-.36.93-.72,1.39-1.1a21.69,21.69,0,0,0,7.41-10.37,13.54,13.54,0,0,0,.63-6,7.45,7.45,0,0,0-4.23-5.65c-3.61-1.88-7.5-2.13-11.46-1.92-.88,0-1.74.17-2.65.27a9.59,9.59,0,0,0,.5-3.11,59.81,59.81,0,0,0-.54-7.57,66.23,66.23,0,0,1-.6-8.32,11.47,11.47,0,0,1,.79-4.6,3.51,3.51,0,0,1,3-2.24,7.94,7.94,0,0,1,2.62.18,19.41,19.41,0,0,1,7.07,3.3,31.09,31.09,0,0,1,10.25,11.67,20.49,20.49,0,0,1,2.07,7.06l.73-.26a13,13,0,0,1,4.22-.87,9,9,0,0,1,6.8,3,8,8,0,0,1,2.41,6.36,16.24,16.24,0,0,1-1.27,4.49,6.32,6.32,0,0,1-2.22,2.82c-.76.57-1.51,1.16-2.3,1.69a25.14,25.14,0,0,0-3.73,3.56,11.91,11.91,0,0,1-6.55,3.61c-.59.1-.67.31-.65.82a67.17,67.17,0,0,1-.31,9.08,14.52,14.52,0,0,1-.45,2.56l-1.53-2.61c0,.35.05.55.05.74a46.62,46.62,0,0,1-.43,7.74,26.51,26.51,0,0,1-1.64,6.69,5.4,5.4,0,0,1-.85,1.48,6,6,0,0,1-.84-3.91c-.69,1.18-1.29,2.24-1.93,3.28a33.74,33.74,0,0,1-3.8,5.33,3.84,3.84,0,0,1-1.4,1.08,34.85,34.85,0,0,0-.3-5,79.7,79.7,0,0,1-7.46,11.27c-1.86,2.38-3.69,4.81-6.28,6.48Zm7.1-22.59a9.3,9.3,0,0,1,1.58.08.68.68,0,0,1,.64.4.75.75,0,0,1-.24.76,3.07,3.07,0,0,1-.84.64,13.45,13.45,0,0,1-7.7,1.47,7.2,7.2,0,0,1-3-1.2,4.94,4.94,0,0,0-2.84-.8,2.88,2.88,0,0,0-1.32.34,1,1,0,0,0-.36,1.51,4.14,4.14,0,0,0,1,1,10.45,10.45,0,0,0,5,1.91c5.89.73,9.85-2.13,12.75-6.9a8,8,0,0,0,.56-1.14c.19-.45.09-.6-.41-.62-1.2,0-2.39.11-3.59.17a57,57,0,0,1-9.6-.08,17,17,0,0,1-4.64-1.15,9.06,9.06,0,0,1-2.77-1.8c-.1-.1-.2-.2-.31-.29-.6-.56-1-.64-1.31-.3a1.4,1.4,0,0,0,0,1.83,10.68,10.68,0,0,0,4,2.6,23.06,23.06,0,0,0,9,1.8C108.44,84.85,109.84,84.8,111.25,84.71Zm27.33-44.4a8.48,8.48,0,0,1,4.33-.18,5,5,0,0,1,4,4.35,8.65,8.65,0,0,1,0,2.87,17.54,17.54,0,0,0-5.6-2.26,6.89,6.89,0,0,0-2.39-.3.56.56,0,0,0-.57.66c0,.76.24,1.49.3,2.25a6.59,6.59,0,0,1-.15,2.76,3.76,3.76,0,0,1-2,2.21c-.29.15-.33,0-.39-.22a11,11,0,0,0-1.89-3.81,50.66,50.66,0,0,1,.1,8.71,30.51,30.51,0,0,0,2.13-2.49c1-1.31,2-2.62,3-4a.5.5,0,0,1,.65-.22,4.82,4.82,0,0,1,3.28,2.44c.15.31.26.22.46.07a9.56,9.56,0,0,0,3.72-6.51c.52-3.22-.85-5.61-3.41-7.42a7.77,7.77,0,0,0-8.25-.55,1.67,1.67,0,0,0-.23.12c-1.34.67-1.34.67-1.44,2.14,0,.29.08.7-.48.37-.26-.15-.54-.07-.46.36s.16.93.26,1.49A12.77,12.77,0,0,1,138.58,40.31ZM64.3,44.48a1.57,1.57,0,0,0,.65.6,13.61,13.61,0,0,1,2.37,1.76c.19.19.3.07.44,0a6.82,6.82,0,0,1,1.44-.87,1.87,1.87,0,0,1,2.71,1.16,3.8,3.8,0,0,1,.27,1.13,1.75,1.75,0,0,0,.62,1.23,17.58,17.58,0,0,0,2.38,2c.22.15.32.14.39-.13.2-.73.4-1.45.61-2.18,0-.17.08-.28-.16-.33-2.6-.47-3.16-2.53-3-4.75a24.79,24.79,0,0,1,.35-2.71c.12-.7,0-.88-.78-.89a18.53,18.53,0,0,0-3.64.57,25.59,25.59,0,0,1-3,.46,2.58,2.58,0,0,1-2.15-.56A6.76,6.76,0,0,0,64.3,44.48Zm15.84-8.34c.09-.26,0-.39-.21-.53a7.63,7.63,0,0,0-3.88-1.79,12.18,12.18,0,0,0-8.54,2,6.77,6.77,0,0,0-1.82,1.47A16.73,16.73,0,0,1,68.79,36a11.45,11.45,0,0,1,6.95-.18,7.22,7.22,0,0,1,2.75,1.73c.27.27.52.56.86.92C79.63,37.6,79.87,36.87,80.14,36.14Zm60.34,19.41-1.89-.32c-.12,0-.18.09-.25.16l-4.26,4a.89.89,0,0,0-.31.47,8,8,0,0,1-.59,1.44C136.45,60.35,138.33,57.83,140.48,55.55Zm-68.9-1.67A11.84,11.84,0,0,0,74,55.19c.28.12.38.1.52-.22a1.15,1.15,0,0,0-.48-1.58,33.73,33.73,0,0,0-3.85-2.76,3.82,3.82,0,0,0-1.43-.56A6.8,6.8,0,0,0,71.58,53.88Zm60.05,7.36c0,.11,0,.24.16.23a11.77,11.77,0,0,0,1.19-.18c.23,0,.07-.24,0-.35a17.68,17.68,0,0,0-1.58-3.83C131.5,58.49,131.57,59.87,131.63,61.24Z"/><path class="cls-4" d="M115.55,49.4a8,8,0,0,1,7.32,1.44,4.06,4.06,0,0,0-2.3-2.64,11.09,11.09,0,0,0-5.37-.82,24.8,24.8,0,0,0-3.82.49.81.81,0,0,0-.65.51c-1,2.23-1.92,4.46-2.67,6.76-.14.43,0,.54.37.48h.16a3,3,0,0,0,1,0c.34-.13,0-.54.19-.81a8.77,8.77,0,0,1,.67-1.2,19.37,19.37,0,0,1,2.68-2.9,2,2,0,0,1,1.21-.44,8.05,8.05,0,0,1,4.15.49,6.19,6.19,0,0,1,3.23,3.12c.19.41.37.52.83.4.82-.22.83-.19.51-1a6.11,6.11,0,0,0-5-3.75C117.23,49.41,116.39,49.47,115.55,49.4Z"/><path class="cls-4" d="M91.57,48.92c4.52-1.21,6.34-1.33,8.3-.53-.53,0-1-.1-1.46-.12a8.33,8.33,0,0,0-7.15,3.26.75.75,0,0,0,.26,1.16.47.47,0,0,0,.73-.2A6.31,6.31,0,0,1,96,49.42a9.21,9.21,0,0,1,6.42.7,1.16,1.16,0,0,1,.43.45,8.36,8.36,0,0,1,1.61,4c.07.53.27.71.76.75.87.07.87.1.73-.76l-1-6.72a.64.64,0,0,0-.48-.59,16,16,0,0,0-6-.84,15.12,15.12,0,0,0-5.11,1,4.66,4.66,0,0,0-1.19.67A1.22,1.22,0,0,0,91.57,48.92Z"/><path class="cls-4" d="M117,51.17a3.94,3.94,0,0,0-3.08,1.19c-.63.66-1,1.54-1.81,2-.29.18,0,.86.36.89a8.43,8.43,0,0,1,2.25.66,4.51,4.51,0,0,0,5.74-1.88.8.8,0,0,0,0-1A4.26,4.26,0,0,0,117,51.17Z"/><path class="cls-4" d="M98.81,55.19a8.75,8.75,0,0,0,2-.17,4.38,4.38,0,0,1,1.57-.15c.12,0,.25,0,.33-.09a.24.24,0,0,0-.06-.33c-1-.81-1.37-2-2.18-3a3.63,3.63,0,0,0-3.71-1.06,5.58,5.58,0,0,0-2.48,1.11.66.66,0,0,0-.22.91A4.21,4.21,0,0,0,98,55.18h.85Z"/><path class="cls-4" d="M102.12,64.17a.52.52,0,0,0-.17.59,5.75,5.75,0,0,0,2.18,3.49,1.5,1.5,0,0,0,.32.19c.63.33.81.23.91-.49.13-.93.13-.93-.72-1.25a5,5,0,0,1-2-1.28A2.84,2.84,0,0,1,102.12,64.17Z"/><path class="cls-4" d="M110.56,64.38c-.4.44-.75.85-1.14,1.22a4.15,4.15,0,0,1-2,1.21.32.32,0,0,0-.28.41.81.81,0,0,0,0,.16c.1.49.07,1.18.55,1.34s.74-.48,1-.82a9,9,0,0,0,1.7-2.64A1.41,1.41,0,0,0,110.56,64.38Z"/></g></g><g id="Pierna_1"><g id="Pierna_1-2" data-name="Pierna_1"><path class="cls-1" d="M274.78,394.92a21.75,21.75,0,0,0,21.33-17.7l23.15-122a21.75,21.75,0,0,0-42.73-8.11l-23.14,122a21.79,21.79,0,0,0,21.39,25.8Z"/><path class="cls-5" d="M276,395.16a23.39,23.39,0,0,0,23-19.55l4.66-27.94A23.39,23.39,0,0,0,257.53,340l-4.65,27.93a23.4,23.4,0,0,0,19.22,26.92A24.34,24.34,0,0,0,276,395.16Z"/><path class="cls-1" d="M267.19,386.86a17.21,17.21,0,1,1,30.88,0Z"/><path class="cls-5" d="M272.2,357.9H260.87a18.35,18.35,0,0,0-18.35,18.35V389.8h48V376.25A18.35,18.35,0,0,0,272.2,357.9Z"/><path class="cls-1" d="M260.87,357.9h8.6a18.35,18.35,0,0,0-18.36,18.35V389.8h-8.59V376.25A18.35,18.35,0,0,1,260.87,357.9Z"/><path class="cls-6" d="M253.24,383.83H297a6.67,6.67,0,0,1,6.66,6.67h0a6.66,6.66,0,0,1-6.66,6.66H253.24a6.66,6.66,0,0,1-6.66-6.66h0A6.67,6.67,0,0,1,253.24,383.83Z"/><path class="cls-7" d="M244.65,383.83h43.77a6.67,6.67,0,0,1,6.67,6.67h0a6.67,6.67,0,0,1-6.67,6.66H244.65A6.67,6.67,0,0,1,238,390.5h0A6.67,6.67,0,0,1,244.65,383.83Z"/><path class="cls-8" d="M310.72,302.85a5.31,5.31,0,0,0,.87-10.55l-42.47-7.08a5.31,5.31,0,0,0-1.75,10.48l42.48,7.07A5.12,5.12,0,0,0,310.72,302.85Z"/><path class="cls-8" d="M308.55,315.16a5.31,5.31,0,0,0,.86-10.55l-42.47-7.08A5.31,5.31,0,0,0,265.19,308l42.48,7.08A5.24,5.24,0,0,0,308.55,315.16Z"/><path class="cls-9" d="M289.61,281l4.55.83a14.39,14.39,0,0,1,3.17,1,13.94,13.94,0,0,1,8.06,15.28l-1.72,9.36a14,14,0,0,1-16.25,11.22l-4.56-.83a14,14,0,0,1-3.17-1h0a13.92,13.92,0,0,1-8.05-15.28l1.71-9.36A14,14,0,0,1,289.61,281Z"/><path class="cls-10" d="M288.36,287.85l4.55.84a7,7,0,0,1,5.64,8.17l-1.71,9.36a7,7,0,0,1-8.17,5.64l-4.56-.84a7,7,0,0,1-5.64-8.17l1.72-9.36A7,7,0,0,1,288.36,287.85Z"/></g></g><g id="Pierna_2"><g id="Pierna_2-2" data-name="Pierna_2"><path class="cls-5" d="M360.06,390.09a21.75,21.75,0,0,0,21.46-25.4L359.69,236.54a21.74,21.74,0,0,0-42.87,7.3L338.66,372A21.74,21.74,0,0,0,360.06,390.09Z"/><path class="cls-1" d="M331.94,219.38a21.74,21.74,0,0,0-8.67,21.26L345.1,368.79a21.76,21.76,0,0,0,21.41,18.1,22.05,22.05,0,0,0,3.68-.32,21,21,0,0,0,2.66-.62,21.65,21.65,0,0,1-9.11,3.83A21.73,21.73,0,0,1,338.66,372L316.82,243.84A21.76,21.76,0,0,1,331.94,219.38Z"/><g id="Pie"><path class="cls-5" d="M360.21,395.16a23.64,23.64,0,0,0,3.73-.3,23.4,23.4,0,0,0,19.39-26.8l-4.81-30a23.39,23.39,0,0,0-46.18,7.41l4.81,30A23.38,23.38,0,0,0,360.21,395.16Z"/><path class="cls-1" d="M345.58,320.57a23.38,23.38,0,0,0-8.13,21.68l4.81,30a23.39,23.39,0,0,0,23.07,19.68,22.59,22.59,0,0,0,3.73-.3,23.18,23.18,0,0,0,6.14-1.87,23.31,23.31,0,0,1-11.26,5.12,23.64,23.64,0,0,1-3.73.3,23.38,23.38,0,0,1-23.06-19.69l-4.81-30A23.39,23.39,0,0,1,345.58,320.57Z"/><path class="cls-5" d="M351.63,357.9h33.59a23.6,23.6,0,0,1,23.6,23.59v8.31H339.13V370.39A12.49,12.49,0,0,1,351.63,357.9Z"/><path class="cls-1" d="M337.59,386.86a17,17,0,0,1-1.78-7.61,17.22,17.22,0,0,1,34.43,0,17,17,0,0,1-1.78,7.61Z"/><path class="cls-6" d="M341.49,383.83h65.94a6.67,6.67,0,0,1,6.66,6.67h0a6.66,6.66,0,0,1-6.66,6.66H341.49a6.66,6.66,0,0,1-6.66-6.66h0A6.67,6.67,0,0,1,341.49,383.83Z"/></g><path class="cls-11" d="M326.67,311a5.16,5.16,0,0,0,1.16-.13l24.31-5.43a5.31,5.31,0,1,0-2.32-10.36l-24.31,5.43A5.31,5.31,0,0,0,326.67,311Z"/><path class="cls-11" d="M329.67,324.5a5.09,5.09,0,0,0,1.16-.13l24.31-5.43a5.31,5.31,0,1,0-2.31-10.36L328.52,314a5.31,5.31,0,0,0,1.15,10.49Z"/><path class="cls-1" d="M354,288.66l4.51-1.1a14.09,14.09,0,0,1,3.29-.39,13.92,13.92,0,0,1,13.57,10.68l2.24,9.24A14,14,0,0,1,367.36,324l-4.5,1.09a14.18,14.18,0,0,1-3.3.39h0A13.93,13.93,0,0,1,346,314.77l-2.24-9.25A14,14,0,0,1,354,288.66Z"/><path class="cls-10" d="M355.67,295.41l4.5-1.09a7,7,0,0,1,8.48,5.16l2.24,9.25a7,7,0,0,1-5.17,8.48l-4.5,1.09a7,7,0,0,1-8.48-5.17l-2.24-9.25A7,7,0,0,1,355.67,295.41Z"/></g></g><g id="Braso_telefono_chimp"><g id="Braso_telefono_chimp-2" data-name="Braso_telefono_chimp"><g id="Bras"><path class="cls-11" d="M357.93,160.59h0a6.28,6.28,0,0,1,8.84.89l6.76,8.25a6.3,6.3,0,0,1-.88,8.85h0a6.29,6.29,0,0,1-8.85-.89L357,169.44A6.29,6.29,0,0,1,357.93,160.59Z"/><path class="cls-12" d="M382.76,226.42a16.82,16.82,0,0,0,12.95-27.54L363.1,159.44a16.82,16.82,0,0,0-25.93,21.44l32.61,39.44A16.82,16.82,0,0,0,382.76,226.42Z"/></g><g id="Avant_bras"><path class="cls-5" d="M382.74,226.42a16.8,16.8,0,0,0,13.46-6.71l26-34.64a16.83,16.83,0,0,0-26.9-20.22l-26,34.64a16.82,16.82,0,0,0,13.44,26.93Z"/><path class="cls-10" d="M401.47,202.63a17.92,17.92,0,0,0,14.36-7.17l7.31-9.71a18,18,0,0,0-28.7-21.57l-7.3,9.71a18,18,0,0,0,14.33,28.74Z"/></g><ellipse id="Mano" class="cls-5" cx="415.37" cy="163.49" rx="22.11" ry="20.51" transform="translate(140.53 515.24) rotate(-73.48)"/></g></g><g id="Tronco_chimp"><g id="Tronco_chimp-2" data-name="Tronco_chimp"><g id="Maleta"><path class="cls-13" d="M242.06,217.75h12.13V141.66H242.06a7.58,7.58,0,0,0-7.59,7.58v60.93A7.58,7.58,0,0,0,242.06,217.75Z"/><path class="cls-1" d="M263.8,115.17h33.87a21.62,21.62,0,0,1,21.62,21.62v85.83a21.62,21.62,0,0,1-21.62,21.62H263.8a21.62,21.62,0,0,1-21.62-21.62V136.79A21.62,21.62,0,0,1,263.8,115.17Z"/><path class="cls-14" d="M284.53,115.17h33.88A21.62,21.62,0,0,1,340,136.79v85.83a21.62,21.62,0,0,1-21.61,21.62H284.53a21.62,21.62,0,0,1-21.62-21.62V136.79A21.62,21.62,0,0,1,284.53,115.17Z"/><path class="cls-15" d="M249.33,137.67h8.47a3.73,3.73,0,0,1,3.72,3.73v8.47a3.73,3.73,0,0,1-3.72,3.73h-8.47a3.73,3.73,0,0,1-3.73-3.73V141.4A3.73,3.73,0,0,1,249.33,137.67Z"/><path class="cls-6" d="M246.23,141.34a1.77,1.77,0,0,0,1.77-1.77V115.3a1.77,1.77,0,0,0-3.54,0v24.27A1.77,1.77,0,0,0,246.23,141.34Z"/><path class="cls-6" d="M245.28,137.67h8.47a3.73,3.73,0,0,1,3.73,3.73v8.47a3.73,3.73,0,0,1-3.73,3.73h-8.47a3.73,3.73,0,0,1-3.73-3.73V141.4A3.73,3.73,0,0,1,245.28,137.67Z"/><path class="cls-16" d="M248.15,148.8l-3.05-4.44a1.65,1.65,0,0,1,1.36-2.6h6.11a1.66,1.66,0,0,1,1.47.88,1.69,1.69,0,0,1-.1,1.72h0l-3.06,4.44a1.65,1.65,0,0,1-2.73,0Zm4.42-5.78h-6.11a.41.41,0,0,0-.35.21.38.38,0,0,0,0,.41l3.05,4.44a.38.38,0,0,0,.33.17.37.37,0,0,0,.32-.17l3-4.44h0a.38.38,0,0,0,0-.41.41.41,0,0,0-.35-.21Z"/></g><path class="cls-5" d="M318.91,264.33h0a44,44,0,0,0,44-44V155.05H274.88V220.3A44,44,0,0,0,318.91,264.33Z"/><path class="cls-1" d="M301.47,155.05v78.54a30.75,30.75,0,0,0,24.69,30.15,44.43,44.43,0,0,1-7.25.59h0a44,44,0,0,1-44-44V155.05Z"/><path class="cls-15" d="M319,209h38.43A4.93,4.93,0,0,0,362.4,204V175.22a4.93,4.93,0,0,0-4.93-4.93H319a4.93,4.93,0,0,0-4.93,4.93V204A4.93,4.93,0,0,0,319,209Z"/><path class="cls-17" d="M325.11,209h38.43a4.93,4.93,0,0,0,4.93-4.93V175.22a4.93,4.93,0,0,0-4.93-4.93H325.11a4.92,4.92,0,0,0-4.93,4.93V204A4.93,4.93,0,0,0,325.11,209Z"/><circle class="cls-18" cx="330.34" cy="180.68" r="3.26"/><path class="cls-11" d="M326.88,187.93h6.93a1,1,0,0,1,0,2h-6.93a1,1,0,0,1,0-2Z"/><path class="cls-19" d="M326.88,192.09h6.93a1,1,0,0,1,0,2h-6.93a1,1,0,0,1,0-2Z"/><path class="cls-11" d="M362.17,178.67l-3.75,5.46a1.27,1.27,0,0,1-2.09,0l-3.75-5.46a1.26,1.26,0,0,1,1-2h7.51A1.26,1.26,0,0,1,362.17,178.67Z"/><path class="cls-11" d="M309.59,162.54H324.7a1.55,1.55,0,0,0,1.55-1.54h0a1.55,1.55,0,0,0-1.55-1.55H309.59A1.55,1.55,0,0,0,308,161h0A1.55,1.55,0,0,0,309.59,162.54Z"/><path class="cls-11" d="M317.92,168h6.78a1.55,1.55,0,0,0,1.55-1.54h0a1.55,1.55,0,0,0-1.55-1.55h-6.78a1.54,1.54,0,0,0-1.55,1.55h0A1.54,1.54,0,0,0,317.92,168Z"/><g id="FLAG"><rect class="cls-2" x="303.1" y="212.77" width="53.54" height="28.31" transform="translate(659.75 453.84) rotate(-180)"/><rect class="cls-3" x="346.99" y="212.77" width="9.59" height="28.31" transform="translate(703.57 453.84) rotate(-180)"/><rect class="cls-3" x="303.04" y="212.77" width="9.59" height="28.31" transform="translate(615.66 453.84) rotate(-180)"/><path class="cls-4" d="M329.51,238.62a.66.66,0,0,1,0-.14,15.32,15.32,0,0,0,.23-1.91,5,5,0,0,0,0-1c0-.16,0-.17-.16-.08a2.92,2.92,0,0,0-.38.32,4.52,4.52,0,0,0-1,1.68c-.12.31-.21.63-.31,1a4.14,4.14,0,0,1-.75-1.92,7.22,7.22,0,0,1-.09-2.08,2.27,2.27,0,0,0-.64.54,3,3,0,0,0-.58,1.26c0,.09,0,.11-.13,0a1,1,0,0,1-.3-.42,3.37,3.37,0,0,1-.21-1,7.61,7.61,0,0,1,0-1.07,2.79,2.79,0,0,0-1.34,1.6,1.82,1.82,0,0,1-.16-.5,7,7,0,0,1,.33-3.28,3.4,3.4,0,0,0-1.39,1.75,11.46,11.46,0,0,1,.76-5.27,4.9,4.9,0,0,0-.75.76c-.23.28-.43.58-.64.87a9.58,9.58,0,0,1,.37-1.67,10.6,10.6,0,0,1,.66-1.62l-1.44.62.31-1.13c.06-.23.06-.22-.16-.31a2.14,2.14,0,0,1-1.4-1.56.6.6,0,0,0-.28-.42,2.41,2.41,0,0,1-.68-.67,1.47,1.47,0,0,1-.2-1.4,3.06,3.06,0,0,1,3.42-2c.25,0,.24,0,.35-.17a9,9,0,0,1,3.71-3.68,4,4,0,0,1,2.28-.51,1.42,1.42,0,0,1,1.24.85,3,3,0,0,1,.23.72,7.73,7.73,0,0,1,0,2.4c-.11.79-.3,1.56-.46,2.34,0,.07,0,.09-.11.08l-.32,0a6.77,6.77,0,0,0-2.45.26,2.7,2.7,0,0,0-1.79,1.63,4.36,4.36,0,0,0-.25,1.6,3.43,3.43,0,0,0,.23,1.38,1.31,1.31,0,0,0,.81.8,1.36,1.36,0,0,0,.41.05c-.1.15-.2.27-.28.41a2.5,2.5,0,0,0,0,2.43.48.48,0,0,0,.13.16,14.09,14.09,0,0,0,1.5.89,3.09,3.09,0,0,0,1,.38,18.19,18.19,0,0,0,2.45.11,3.75,3.75,0,0,0,1.79-.51,1.19,1.19,0,0,0,.61-.88l0-.24a2.32,2.32,0,0,0-.59-1.89l.35-.27a5.56,5.56,0,0,0,1.89-2.64,3.58,3.58,0,0,0,.16-1.52,1.91,1.91,0,0,0-1.08-1.44,5.52,5.52,0,0,0-2.91-.49c-.22,0-.44,0-.67.07a2.41,2.41,0,0,0,.12-.79,15.5,15.5,0,0,0-.14-1.92,18.88,18.88,0,0,1-.15-2.12,3.1,3.1,0,0,1,.2-1.17.91.91,0,0,1,.77-.57,2.15,2.15,0,0,1,.67,0,4.82,4.82,0,0,1,1.79.84,7.92,7.92,0,0,1,2.61,3,5.35,5.35,0,0,1,.53,1.8l.18-.07a3.58,3.58,0,0,1,1.07-.22,2.28,2.28,0,0,1,1.73.76,2,2,0,0,1,.61,1.62,4.12,4.12,0,0,1-.32,1.14,1.66,1.66,0,0,1-.56.72c-.2.14-.39.29-.59.42a6.82,6.82,0,0,0-.95.91,3,3,0,0,1-1.66.92c-.15,0-.17.08-.17.21a17.62,17.62,0,0,1-.07,2.3,4.08,4.08,0,0,1-.12.65l-.39-.66c0,.09,0,.14,0,.19a11.85,11.85,0,0,1-.12,2,6.7,6.7,0,0,1-.41,1.7,1.57,1.57,0,0,1-.22.37,1.53,1.53,0,0,1-.21-1c-.18.3-.33.57-.49.83a8.62,8.62,0,0,1-1,1.36,1.06,1.06,0,0,1-.35.27,9,9,0,0,0-.08-1.28,19.82,19.82,0,0,1-1.9,2.87,6.92,6.92,0,0,1-1.59,1.65Zm1.8-5.75a2.61,2.61,0,0,1,.4,0,.19.19,0,0,1,.17.1.2.2,0,0,1-.07.2.83.83,0,0,1-.21.16,3.33,3.33,0,0,1-2,.37,1.8,1.8,0,0,1-.75-.3,1.23,1.23,0,0,0-.72-.2.68.68,0,0,0-.34.08.25.25,0,0,0-.09.39,1,1,0,0,0,.26.24,2.58,2.58,0,0,0,1.28.49,3.14,3.14,0,0,0,3.24-1.75,2.59,2.59,0,0,0,.14-.29c0-.12,0-.16-.11-.16-.3,0-.6,0-.91,0a14.2,14.2,0,0,1-2.44,0A4.43,4.43,0,0,1,328,232a2.3,2.3,0,0,1-.7-.46l-.08-.07c-.15-.14-.25-.16-.33-.08a.36.36,0,0,0,0,.47,2.68,2.68,0,0,0,1,.66,5.87,5.87,0,0,0,2.3.46Zm6.95-11.28a2.16,2.16,0,0,1,1.1-.05,1.3,1.3,0,0,1,1,1.11,2.56,2.56,0,0,1,0,.73,4.73,4.73,0,0,0-1.42-.58,1.79,1.79,0,0,0-.61-.07c-.11,0-.15.06-.15.16s.06.38.08.58a1.66,1.66,0,0,1,0,.7,1,1,0,0,1-.51.56c-.07,0-.08,0-.1-.06a2.85,2.85,0,0,0-.47-1,12.54,12.54,0,0,1,0,2.21,7.29,7.29,0,0,0,.54-.63l.77-1a.11.11,0,0,1,.16-.05,1.2,1.2,0,0,1,.83.62c0,.07.07.05.12,0a2.42,2.42,0,0,0,.95-1.65,1.84,1.84,0,0,0-.87-1.89,2,2,0,0,0-2.1-.14l-.06,0c-.34.17-.34.17-.36.55,0,.07,0,.18-.12.09s-.14,0-.12.09,0,.24.07.38A3.15,3.15,0,0,1,338.26,221.59Zm-18.88,1.06a.39.39,0,0,0,.16.15,3.31,3.31,0,0,1,.61.45c0,.05.07,0,.11,0a1.34,1.34,0,0,1,.36-.22.48.48,0,0,1,.69.29.73.73,0,0,1,.07.29.47.47,0,0,0,.16.31,4.9,4.9,0,0,0,.6.51c.06,0,.08,0,.1,0s.11-.37.16-.55,0-.08,0-.09c-.66-.12-.81-.64-.77-1.21q0-.34.09-.69c0-.17,0-.22-.2-.22a5.51,5.51,0,0,0-.92.14,6.83,6.83,0,0,1-.77.12.68.68,0,0,1-.55-.14A1.73,1.73,0,0,0,319.38,222.65Zm4-2.12c0-.07,0-.1,0-.14a1.92,1.92,0,0,0-1-.45,3.11,3.11,0,0,0-2.18.5,1.83,1.83,0,0,0-.46.37,4.84,4.84,0,0,1,.79-.32,3,3,0,0,1,1.77-.05,1.85,1.85,0,0,1,.69.44l.22.24C323.28,220.9,323.34,220.71,323.4,220.53Zm15.34,4.93-.48-.08a.07.07,0,0,0-.06,0l-1.09,1a.5.5,0,0,0-.08.12,2.13,2.13,0,0,1-.14.37A4.19,4.19,0,0,0,338.74,225.46ZM321.23,225a2.83,2.83,0,0,0,.62.33c.08,0,.1,0,.14-.06a.3.3,0,0,0-.12-.4,9.68,9.68,0,0,0-1-.7,1,1,0,0,0-.37-.14A1.75,1.75,0,0,0,321.23,225Zm15.26,1.87s0,.06,0,.06l.3-.05c.06,0,0-.06,0-.09a4.31,4.31,0,0,0-.4-1C336.46,226.21,336.47,226.56,336.49,226.91Z"/><path class="cls-4" d="M332.41,223.9a2.06,2.06,0,0,1,1.86.36,1.06,1.06,0,0,0-.59-.67,2.76,2.76,0,0,0-1.36-.2,5.25,5.25,0,0,0-1,.12.2.2,0,0,0-.17.13,18.07,18.07,0,0,0-.68,1.72c0,.11,0,.14.1.12h0a.7.7,0,0,0,.25,0c.09,0,0-.13.05-.2a1.87,1.87,0,0,1,.17-.31,4.71,4.71,0,0,1,.68-.73.52.52,0,0,1,.31-.12,2.09,2.09,0,0,1,1,.13,1.54,1.54,0,0,1,.82.79c0,.11.1.13.21.1s.22,0,.13-.24a1.54,1.54,0,0,0-1.26-.95C332.83,223.9,332.62,223.92,332.41,223.9Z"/><path class="cls-4" d="M326.31,223.78c1.15-.31,1.61-.34,2.11-.14l-.37,0a2.11,2.11,0,0,0-1.82.83.18.18,0,0,0,.07.29c.07,0,.13.05.18,0a1.67,1.67,0,0,1,.95-.78,2.35,2.35,0,0,1,1.63.18.26.26,0,0,1,.11.12,2.05,2.05,0,0,1,.41,1c0,.14.07.18.2.19s.22,0,.18-.19c-.09-.57-.18-1.14-.26-1.71a.18.18,0,0,0-.13-.15,4,4,0,0,0-1.53-.21,3.78,3.78,0,0,0-1.29.24,1.17,1.17,0,0,0-.31.17A.29.29,0,0,0,326.31,223.78Z"/><path class="cls-4" d="M332.76,224.35a1,1,0,0,0-.78.3c-.16.17-.25.39-.46.52s0,.22.09.23a1.94,1.94,0,0,1,.57.16,1.15,1.15,0,0,0,1.46-.48.18.18,0,0,0,0-.24A1.07,1.07,0,0,0,332.76,224.35Z"/><path class="cls-4" d="M328.15,225.37a2.28,2.28,0,0,0,.52,0,1.07,1.07,0,0,1,.4,0s.06,0,.08,0a.07.07,0,0,0,0-.09c-.25-.2-.35-.52-.56-.75a.92.92,0,0,0-.94-.27,1.44,1.44,0,0,0-.63.28.17.17,0,0,0-.06.23,1.07,1.07,0,0,0,1,.7h.22Z"/><path class="cls-4" d="M329,227.65a.13.13,0,0,0,0,.15,1.45,1.45,0,0,0,.55.89l.08.05c.16.08.21.06.24-.13s0-.23-.19-.31a1.29,1.29,0,0,1-.5-.33A.71.71,0,0,1,329,227.65Z"/><path class="cls-4" d="M331.14,227.71l-.29.31a1.07,1.07,0,0,1-.51.3c-.06,0-.08.05-.07.11v0c0,.12,0,.3.14.34s.19-.12.27-.21a2.48,2.48,0,0,0,.43-.67A.4.4,0,0,0,331.14,227.71Z"/></g></g></g><g id="Braso_bandera_chimp"><g id="Braso_bandera_chimp-2" data-name="Braso_bandera_chimp"><g id="Bras-2" data-name="Bras"><path class="cls-5" d="M254.36,221.11a16.77,16.77,0,0,0,11.7-4.73l29.53-28.57a16.82,16.82,0,1,0-23.39-24.18L242.67,192.2a16.82,16.82,0,0,0,11.69,28.91Z"/><path class="cls-11" d="M279.73,161.83h0a6.25,6.25,0,0,1,.2,8.84l-7.33,7.65a6.25,6.25,0,0,1-8.84.19h0a6.25,6.25,0,0,1-.19-8.83L270.9,162A6.24,6.24,0,0,1,279.73,161.83Z"/></g><g id="Avant_bras-2" data-name="Avant_bras"><path class="cls-5" d="M254.35,221.12a16.83,16.83,0,0,0,8.56-31.32L229.5,170.08a16.82,16.82,0,0,0-17.1,29l33.41,19.72A16.81,16.81,0,0,0,254.35,221.12Z"/><path class="cls-10" d="M229.41,207.53a18,18,0,0,0,9.14-33.41l-8.48-5A18,18,0,0,0,211.82,200l8.48,5A17.91,17.91,0,0,0,229.41,207.53Z"/></g><g id="Mano-2" data-name="Mano"><circle class="cls-1" cx="211.05" cy="177.9" r="20.9"/><path class="cls-15" d="M196.42,192.27h12a13.91,13.91,0,0,0,13.91-13.91v-24H196.42Z"/><path class="cls-1" d="M201.55,197.75h7v-46h-7a12.74,12.74,0,0,0-12.74,12.74V185A12.74,12.74,0,0,0,201.55,197.75Z"/><g id="Dedos"><path class="cls-5" d="M197.6,163.37h12.63a5.78,5.78,0,0,0,5.78-5.78h0a5.77,5.77,0,0,0-5.78-5.77H197.6a5.77,5.77,0,0,0-5.77,5.77h0A5.77,5.77,0,0,0,197.6,163.37Z"/><path class="cls-1" d="M197.6,151.82h3.66a5.77,5.77,0,0,0-5.78,5.77h0a5.78,5.78,0,0,0,5.78,5.78H197.6a5.77,5.77,0,0,1-5.77-5.78h0A5.77,5.77,0,0,1,197.6,151.82Z"/><path class="cls-5" d="M197.28,175h12.63a5.77,5.77,0,0,0,5.78-5.77h0a5.78,5.78,0,0,0-5.78-5.78H197.28a5.78,5.78,0,0,0-5.78,5.78h0A5.77,5.77,0,0,0,197.28,175Z"/><path class="cls-5" d="M198.08,186.56H210.7a5.78,5.78,0,0,0,5.78-5.78h0A5.78,5.78,0,0,0,210.7,175H198.08a5.78,5.78,0,0,0-5.78,5.78h0A5.78,5.78,0,0,0,198.08,186.56Z"/><path class="cls-5" d="M200.4,197.7h12.14a5.56,5.56,0,0,0,5.55-5.55h0a5.56,5.56,0,0,0-5.55-5.56H200.4a5.56,5.56,0,0,0-5.55,5.56h0A5.56,5.56,0,0,0,200.4,197.7Z"/><path class="cls-1" d="M197.28,163.41H203a5.78,5.78,0,0,0-5.78,5.78h0A5.77,5.77,0,0,0,203,175h-5.75a5.77,5.77,0,0,1-5.78-5.77h0A5.78,5.78,0,0,1,197.28,163.41Z"/><path class="cls-1" d="M198.08,175h5.74a5.77,5.77,0,0,0-5.77,5.78h0a5.77,5.77,0,0,0,5.77,5.78h-5.74a5.78,5.78,0,0,1-5.78-5.78h0A5.78,5.78,0,0,1,198.08,175Z"/><path class="cls-1" d="M200.4,186.59h5.75a5.55,5.55,0,0,0-5.55,5.56h0a5.55,5.55,0,0,0,5.55,5.55H200.4a5.56,5.56,0,0,1-5.55-5.55h0A5.56,5.56,0,0,1,200.4,186.59Z"/><path class="cls-5" d="M222.2,186h0a6.61,6.61,0,0,0,6.61-6.61V161a6.61,6.61,0,0,0-6.61-6.61h0a6.61,6.61,0,0,0-6.61,6.61v18.44A6.61,6.61,0,0,0,222.2,186Z"/></g></g></g></g><g id="Casco_chimp"><g id="Casco_chimp-2" data-name="Casco_chimp"><circle class="cls-5" cx="316.95" cy="101.07" r="54.64"/><path class="cls-17" d="M283.69,57.7a48.3,48.3,0,0,1,17.53,94.74c-.57.15-1.14.29-1.71.41A54.65,54.65,0,0,1,283.69,57.7Z"/><circle class="cls-20" cx="282.02" cy="118.41" r="12.68" transform="translate(-20.76 75.06) rotate(-14.63)"/><ellipse class="cls-21" cx="328.96" cy="104.87" rx="46.95" ry="47.93" transform="translate(-15.82 86.47) rotate(-14.63)"/><path class="cls-22" d="M371,93.9c-6.61-25.32-31.11-40.9-55-35.17l.86-.24C341.94,52,367.7,67.4,374.39,93s-8.24,51.69-33.33,58.24l-.87.21C363.84,144.79,377.6,119.22,371,93.9Z"/><path class="cls-23" d="M304.19,63.92a48.31,48.31,0,0,1,12.05,86.9,48.33,48.33,0,0,1-12.05-86.9Z"/><circle class="cls-5" cx="282.97" cy="115.65" r="12.68" transform="translate(-20.03 75.21) rotate(-14.63)"/><path class="cls-24" d="M274.79,117.79a8.45,8.45,0,1,1,10.31,6A8.47,8.47,0,0,1,274.79,117.79Zm1.75-.46a6.64,6.64,0,1,0,4.75-8.1A6.65,6.65,0,0,0,276.54,117.33Z"/><path class="cls-24" d="M280.11,115.46l5.26-1.37A.91.91,0,0,0,286,113a.9.9,0,0,0-1.11-.65l-5.26,1.37a.92.92,0,0,0-.65,1.11A.91.91,0,0,0,280.11,115.46Z"/><path class="cls-24" d="M281,119l5.25-1.37a.91.91,0,0,0-.45-1.76l-5.26,1.38a.89.89,0,0,0-.65,1.1A.9.9,0,0,0,281,119Z"/><ellipse class="cls-25" cx="348.24" cy="68.91" rx="2.88" ry="4.77" transform="translate(124.06 344.16) rotate(-62.03)"/><ellipse class="cls-25" cx="355.6" cy="81.34" rx="2.07" ry="2.28" transform="translate(116.99 357.26) rotate(-62.03)"/><path class="cls-1" d="M372.69,146.87h0a8.18,8.18,0,0,1-8.18,8.18H273.32a8.18,8.18,0,0,1-8.18-8.18h0a8.19,8.19,0,0,1,8.18-8.19h91.19A8.19,8.19,0,0,1,372.69,146.87Z"/><path class="cls-15" d="M323.39,146.87h0a8.18,8.18,0,0,1-8.18,8.18H273.32a8.18,8.18,0,0,1-8.18-8.18h0a8.19,8.19,0,0,1,8.18-8.19h41.89A8.19,8.19,0,0,1,323.39,146.87Z"/><path class="cls-5" d="M364.6,146.87h0a8.19,8.19,0,0,0-8.18-8.19h8.09a8.19,8.19,0,0,1,8.18,8.19h0a8.18,8.18,0,0,1-8.18,8.18h-8.09A8.18,8.18,0,0,0,364.6,146.87Z"/></g></g></g></svg>