<svg xmlns="http://www.w3.org/2000/svg" viewBox="0 0 200 194.13"><defs><style>.cls-1{fill:none;stroke:#e19b19;stroke-linecap:round;stroke-linejoin:round;stroke-width:7.5px;}.cls-2{fill:#e19b19;}</style></defs><g id="Layer_2" data-name="Layer 2"><g id="Layer_2-2" data-name="Layer 2"><path class="cls-1" d="M78.09,164.87c-.11,7.63-7.52,16.68-17,25.51h77.84c-5.89-6.86-18.58-15-18.32-25.51"/><path class="cls-2" d="M190.88,39.75H159.71L143.94,56.37h34.57a5.31,5.31,0,0,1,5.33,5.32v81.54a5.31,5.31,0,0,1-5.33,5.32H21.94a5.3,5.3,0,0,1-5.32-5.32V61.69a5.3,5.3,0,0,1,5.32-5.32h85l13.41-16.62H9.12A9.13,9.13,0,0,0,0,48.87v107.4a9.12,9.12,0,0,0,9.12,9.12H190.88a9.12,9.12,0,0,0,9.12-9.12V48.87A9.13,9.13,0,0,0,190.88,39.75Z"/><path class="cls-2" d="M155,4.59A12.11,12.11,0,0,1,172.54,3.1h0a12.11,12.11,0,0,1,.27,17.75L104,86.62a5.49,5.49,0,0,1-7.33.24h0a5.5,5.5,0,0,1-.78-7.62Z"/><path class="cls-2" d="M101,97.53C103,91.8,93.6,84,85,85.48c-12.27,4.22,4.41,20.85-16.74,20.85C99.24,109.64,99.43,101.74,101,97.53Z"/></g></g></svg>