<svg width="500" height="535" viewBox="0 0 500 535" fill="none" xmlns="http://www.w3.org/2000/svg">
<path d="M239.091 14.0391C254.901 23.3985 266.517 34.2102 273.938 46.4742C281.359 58.7382 285.07 71.1636 285.07 83.7504C285.07 92.1415 283.618 100.049 280.714 107.472C275.551 120.381 262.483 135.711 241.511 153.462C220.538 170.889 201.017 183.476 182.948 191.222C165.202 199.936 146.487 207.359 126.805 213.491L119.061 214.943C128.096 232.694 139.389 249.153 152.941 264.322C162.943 275.94 176.656 289.334 194.08 304.503C211.503 319.349 226.507 329.838 239.091 335.97C240.381 337.261 241.027 339.197 241.027 341.779C241.027 345.974 239.897 350.816 237.639 356.302C235.38 361.789 233.605 364.855 232.315 365.5C228.443 366.468 225.7 366.952 224.087 366.952C216.02 366.952 207.793 364.209 199.403 358.723C184.239 349.686 169.558 339.197 155.36 327.256C141.163 314.992 125.676 299.178 108.898 279.813C103.412 273.359 99.2178 267.227 96.3138 261.417C93.4099 255.285 89.054 245.28 83.2461 231.403C75.825 258.513 61.4666 300.146 40.1711 356.302C39.8484 357.916 38.3965 359.207 35.8152 360.175C33.5566 361.143 30.814 361.627 27.5874 361.627C19.8436 361.627 13.229 359.368 7.74382 354.85C7.0985 354.204 5.9692 353.075 4.3559 351.461C2.7426 349.847 1.61329 348.395 0.967976 347.104C0.322659 346.136 0 345.006 0 343.715C0 340.811 2.58127 333.549 7.74382 321.931L13.5517 308.86C15.4876 297.241 20.1662 283.848 27.5874 268.679C29.846 260.933 42.9137 228.014 66.7905 169.921L75.5023 148.621L80.8262 136.034C89.538 114.088 101.315 86.8164 116.157 54.2199C117.448 50.6698 116.803 47.281 114.221 44.0537C111.963 40.5036 108.252 38.7285 103.09 38.7285C99.5404 34.5329 97.7658 30.4987 97.7658 26.6258C97.7658 22.753 99.3791 20.1711 102.606 18.8802L147.133 3.87286C158.426 1.29095 169.396 0 180.044 0C201.662 0 221.344 4.6797 239.091 14.0391ZM163.104 158.303C215.698 133.775 241.188 108.117 239.575 81.3298C239.575 74.8751 236.671 67.7749 230.863 60.0292C225.378 51.9607 219.57 46.9583 213.439 45.0219C197.952 41.149 186.82 39.2126 180.044 39.2126C174.559 39.2126 170.525 40.5036 167.944 43.0855C165.686 45.3446 163.75 49.5402 162.136 55.6722C162.136 56.3177 160.2 60.5133 156.328 68.259C147.939 86.0095 141.809 99.8872 137.937 109.892C134.71 115.701 131.161 122.963 127.289 131.677C122.127 142.327 117.932 151.041 114.705 157.819C111.479 164.273 109.543 168.63 108.898 170.889C108.575 172.826 109.059 174.44 110.349 175.73C116.803 175.408 123.417 173.955 130.193 171.374C137.292 168.792 148.262 164.435 163.104 158.303Z" fill="#E19B19"/>
<path d="M495.006 241.328C495.385 242.721 496.428 244.905 498.134 247.881C499.84 250.857 500.376 253.105 499.742 254.623C498.981 256.775 490.624 263.161 474.67 273.782C466.503 278.397 453.24 287.09 434.879 299.861C416.519 312.633 401.798 323.667 390.718 332.962C375.142 344.977 360.991 355.631 348.265 364.926C335.603 373.904 326.422 380.29 320.725 384.083C320.661 384.399 320.313 384.494 319.68 384.367C319.364 384.304 319.016 384.398 318.636 384.651C317.115 387.308 312.33 397.21 304.281 414.357L288.598 443.302C286.063 447.731 282.324 454.88 277.381 464.75C272.502 474.304 268.636 481.263 265.786 485.629C255.772 506.002 247.915 519.731 242.215 526.815C236.515 533.9 231.609 536.207 227.497 533.735C225.663 533.037 220.256 528.001 211.278 518.627C209.066 514.891 208.309 511.283 209.008 507.802C209.58 504.954 212.052 499.196 216.424 490.528L221.558 479.709C223.399 472.178 226.633 463.446 231.26 453.513C236.203 443.642 241.239 435.766 246.369 429.884C247.322 425.137 250.365 418.177 255.497 409.004C260.693 399.513 265.888 390.846 271.083 383.001L280.017 368.007L273.571 355.85C268.708 344.01 265.33 333.786 263.438 325.177C261.61 316.251 261.048 305.933 261.753 294.225C260.814 280.869 261.742 267.23 264.536 253.307C265.426 248.877 268.219 236.6 272.917 216.476C275.964 202.934 280.148 192.746 285.469 185.915C291.169 178.83 294.273 174.845 294.78 173.959C298.895 171.494 302.85 170.642 306.647 171.405C312.341 172.548 315.849 178.026 317.17 187.837C318.492 197.649 317.819 208.377 315.153 220.021C304.22 284.319 303.243 321.978 312.22 332.998C313.106 333.505 314.498 333.95 316.396 334.331C319.243 334.902 322.154 334.335 325.129 332.628C328.421 330.985 333.739 327.445 341.084 322.007C350.391 314.988 356.374 310.594 359.033 308.824C368.15 302.754 378.533 295.293 390.183 286.441C401.896 277.272 410.096 270.854 414.781 267.186C442.324 244.738 459.989 232.156 467.774 229.44C469.547 227.162 473.124 225.741 478.503 225.175C484.262 224.357 488.122 223.98 490.084 224.045C491.286 224.615 492.044 225.755 492.359 227.464C492.738 228.857 492.958 231.041 493.019 234.016C493.46 236.738 494.122 239.175 495.006 241.328Z" fill="#E19B19"/>
</svg>
