<svg width="105" height="111" viewBox="0 0 105 111" fill="none" xmlns="http://www.w3.org/2000/svg">
<path d="M50.1 3.30003C53.3667 5.23336 55.7667 7.46669 57.3 10C58.8333 12.5334 59.6 15.1 59.6 17.7C59.6 19.4334 59.3 21.0667 58.7 22.6C57.6333 25.2667 54.9333 28.4334 50.6 32.1C46.2667 35.7 42.2333 38.3 38.5 39.9C34.8333 41.7 30.9667 43.2334 26.9 44.5L25.3 44.8C27.1667 48.4667 29.5 51.8667 32.3 55C34.3667 57.4 37.2 60.1667 40.8 63.3C44.4 66.3667 47.5 68.5334 50.1 69.8C50.3667 70.0667 50.5 70.4667 50.5 71C50.5 71.8667 50.2667 72.8667 49.8 74C49.3333 75.1334 48.9667 75.7667 48.7 75.9C47.9 76.1 47.3333 76.2 47 76.2C45.3333 76.2 43.6333 75.6334 41.9 74.5C38.7667 72.6334 35.7333 70.4667 32.8 68C29.8667 65.4667 26.6667 62.2 23.2 58.2C22.0667 56.8667 21.2 55.6 20.6 54.4C20 53.1334 19.1 51.0667 17.9 48.2C16.3667 53.8 13.4 62.4 9 74C8.93333 74.3334 8.63333 74.6 8.1 74.8C7.63333 75 7.06666 75.1 6.4 75.1C4.8 75.1 3.43333 74.6334 2.3 73.7C2.16666 73.5667 1.93333 73.3334 1.6 73C1.26666 72.6667 1.03333 72.3667 0.899997 72.1C0.766664 71.9 0.699997 71.6667 0.699997 71.4C0.699997 70.8 1.23333 69.3 2.3 66.9L3.5 64.2C3.9 61.8 4.86666 59.0334 6.4 55.9C6.86666 54.3 9.56666 47.5 14.5 35.5L16.3 31.1L17.4 28.5C19.2 23.9667 21.6333 18.3334 24.7 11.6C24.9667 10.8667 24.8333 10.1667 24.3 9.50003C23.8333 8.7667 23.0667 8.40003 22 8.40003C21.2667 7.53336 20.9 6.70003 20.9 5.90003C20.9 5.10003 21.2333 4.5667 21.9 4.30003L31.1 1.20003C33.4333 0.666692 35.7 0.400024 37.9 0.400024C42.3667 0.400024 46.4333 1.36669 50.1 3.30003ZM34.4 33.1C45.2667 28.0334 50.5333 22.7334 50.2 17.2C50.2 15.8667 49.6 14.4 48.4 12.8C47.2667 11.1334 46.0667 10.1 44.8 9.70003C41.6 8.90003 39.3 8.50003 37.9 8.50003C36.7667 8.50003 35.9333 8.76669 35.4 9.30003C34.9333 9.76669 34.5333 10.6334 34.2 11.9C34.2 12.0334 33.8 12.9 33 14.5C31.2667 18.1667 30 21.0334 29.2 23.1C28.5333 24.3 27.8 25.8 27 27.6C25.9333 29.8 25.0667 31.6 24.4 33C23.7333 34.3334 23.3333 35.2334 23.2 35.7C23.1333 36.1 23.2333 36.4334 23.5 36.7C24.8333 36.6334 26.2 36.3334 27.6 35.8C29.0667 35.2667 31.3333 34.3667 34.4 33.1Z" fill="#E19B19"/>
<path d="M102.976 50.2502C103.055 50.5379 103.27 50.9891 103.623 51.6039C103.975 52.2187 104.086 52.6829 103.955 52.9966C103.798 53.441 102.071 54.7602 98.7745 56.9542C97.0871 57.9074 94.3467 59.7031 90.5531 62.3413C86.7596 64.9794 83.7181 67.2586 81.4286 69.1789C78.2104 71.6606 75.2866 73.8614 72.6572 75.7814C70.041 77.636 68.1442 78.9551 66.9669 79.7386C66.9538 79.804 66.8818 79.8236 66.7511 79.7973C66.6858 79.7842 66.6138 79.8038 66.5354 79.856C66.2212 80.4049 65.2325 82.4503 63.5694 85.9922L60.329 91.9713C59.8053 92.8861 59.0328 94.363 58.0115 96.4018C57.0033 98.3753 56.2046 99.8129 55.6156 100.715C53.5467 104.923 51.9233 107.759 50.7455 109.222C49.5677 110.686 48.5541 111.162 47.7047 110.652C47.3256 110.508 46.2085 109.467 44.3534 107.531C43.8964 106.759 43.7401 106.014 43.8844 105.295C44.0025 104.707 44.5133 103.517 45.4168 101.727L46.4775 99.4918C46.8578 97.9362 47.526 96.1324 48.482 94.0805C49.5033 92.0416 50.5439 90.4146 51.6039 89.1995C51.8007 88.2191 52.4294 86.7814 53.4898 84.8864C54.5634 82.926 55.6369 81.1356 56.7102 79.5152L58.556 76.418L57.2243 73.9067C56.2194 71.461 55.5215 69.349 55.1306 67.5705C54.7528 65.7268 54.6368 63.5956 54.7824 61.1769C54.5884 58.4181 54.7801 55.6007 55.3575 52.7247C55.5412 51.8097 56.1184 49.2736 57.089 45.1167C57.7187 42.3193 58.5832 40.2149 59.6825 38.8037C60.8603 37.3403 61.5016 36.5171 61.6063 36.3341C62.4565 35.8248 63.2738 35.6489 64.0582 35.8064C65.2347 36.0427 65.9595 37.1741 66.2325 39.2009C66.5055 41.2276 66.3666 43.4436 65.8157 45.8489C63.5569 59.1308 63.3549 66.9099 65.2098 69.1863C65.3927 69.291 65.6803 69.3827 66.0725 69.4615C66.6607 69.5796 67.2623 69.4624 67.877 69.1098C68.5571 68.7704 69.6559 68.0391 71.1734 66.9158C73.0964 65.466 74.3327 64.5583 74.8821 64.1926C76.7657 62.9389 78.9111 61.3977 81.3181 59.5691C83.7383 57.6751 85.4325 56.3493 86.4005 55.5917C92.0914 50.9546 95.7411 48.3555 97.3497 47.7945C97.7161 47.3241 98.4551 47.0305 99.5665 46.9137C100.756 46.7446 101.554 46.6668 101.959 46.6801C102.208 46.798 102.364 47.0335 102.429 47.3865C102.508 47.6742 102.553 48.1253 102.566 48.7398C102.657 49.3021 102.794 49.8056 102.976 50.2502Z" fill="#E19B19"/>
</svg>
