<svg width="51" height="50" viewBox="0 0 51 50" fill="none" xmlns="http://www.w3.org/2000/svg">
<g clip-path="url(#clip0)">
<path d="M50.9133 23.5332V26.4604C50.8733 26.5986 50.8454 26.7401 50.83 26.8832C50.6253 30.3371 49.6491 33.7011 47.9733 36.7282C43.3678 44.9142 36.3476 49.3723 26.9638 49.9616C22.5315 50.2563 18.1092 49.2548 14.2364 47.0792C6.03757 42.493 1.55384 35.4535 0.958147 26.0505C0.674795 21.6032 1.68003 17.1686 3.85336 13.2782C5.61052 9.91078 8.12313 6.99564 11.1946 4.76096C14.266 2.52629 17.8129 1.03271 21.5577 0.39713C22.5121 0.211376 23.4793 0.128107 24.4529 0H27.3801C27.5041 0.0348038 27.6304 0.0604937 27.758 0.076864C30.7849 0.256253 33.7469 1.02886 36.4757 2.35076C44.1621 6.1235 48.87 12.2214 50.5162 20.6444C50.7019 21.5988 50.7852 22.5724 50.9133 23.5332ZM7.65812 36.1004H8.29865C11.7832 36.1004 15.2612 36.1004 18.7457 36.1004C19.6877 36.1071 20.6278 36.017 21.5513 35.8314C23.7996 35.3382 25.5162 34.1212 26.2656 31.8473C26.7617 30.286 26.7884 28.6133 26.3425 27.0369C25.8108 25.0384 24.7475 24.0776 22.6978 23.783C22.7634 23.7436 22.832 23.7094 22.9028 23.6805C24.9717 23.1168 25.8557 21.4579 25.8493 19.4914C25.8429 17.525 25.2792 15.9044 23.6907 14.7002C22.3574 13.7733 20.751 13.3221 19.1301 13.4192C15.4854 13.4192 11.8408 13.4192 8.19617 13.4192H7.66453L7.65812 36.1004ZM44.2646 29.0546C44.1621 27.7735 44.1557 26.5885 43.9443 25.4356C43.4959 22.9567 42.2981 20.9518 39.8897 19.9014C38.3615 19.2685 36.694 19.0476 35.0537 19.2608C33.8505 19.3249 32.6805 19.6787 31.6434 20.2921C30.6062 20.9054 29.7326 21.7602 29.0968 22.7838C28.3631 23.9235 27.8708 25.2016 27.6505 26.5391C27.4301 27.8765 27.4864 29.245 27.8157 30.5598C28.0769 31.9133 28.7217 33.1631 29.6734 34.1602C30.6252 35.1574 31.8435 35.8598 33.1834 36.1837C35.2238 36.7218 37.3689 36.7218 39.4093 36.1837C40.6357 35.9098 41.7515 35.2738 42.612 34.3582C43.5436 33.3015 44.0242 31.9218 43.9507 30.515H40.0307C39.9886 31.0299 39.7843 31.5182 39.447 31.9096C39.1097 32.301 38.657 32.5752 38.1539 32.6928C37.1863 32.9928 36.1568 33.0326 35.169 32.8081C34.3105 32.6368 33.5504 32.1427 33.0451 31.4278C32.5399 30.7128 32.328 29.8314 32.4532 28.9649L44.2646 29.0546ZM31.3899 17.525H40.6904V14.7835H31.3899V17.525Z" fill="white"/>
<path d="M12.8529 32.0266V25.9928H18.9636C20.597 25.9928 21.5257 26.7166 21.7371 28.3243C21.8153 28.983 21.7807 29.6502 21.6346 30.2972C21.5588 30.7853 21.3088 31.2294 20.9308 31.5474C20.5528 31.8653 20.0724 32.0356 19.5785 32.0266C17.3559 32.0715 15.1268 32.0266 12.8529 32.0266Z" fill="white"/>
<path d="M12.8529 17.4609H14.877C16.3246 17.4609 17.7658 17.4609 19.2134 17.4609C19.5835 17.4341 19.9511 17.5399 20.2504 17.7594C20.5496 17.9788 20.761 18.2976 20.8468 18.6587C21.1254 19.5316 21.1254 20.4696 20.8468 21.3425C20.768 21.672 20.5789 21.9647 20.311 22.1721C20.043 22.3794 19.7123 22.489 19.3735 22.4826C18.0925 22.4826 16.869 22.4826 15.62 22.4826H12.8529V17.4609Z" fill="white"/>
<path d="M32.3827 25.9608C32.7542 23.6421 34.5157 22.329 36.9049 22.5532C37.7246 22.6513 38.476 23.0585 39.0057 23.6918C39.5354 24.3251 39.8035 25.1366 39.7552 25.9608H32.3827Z" fill="white"/>
</g>
<defs>
<clipPath id="clip0">
<rect width="50" height="50" fill="white" transform="translate(0.91333)"/>
</clipPath>
</defs>
</svg>
