<svg width="51" height="50" viewBox="0 0 51 50" fill="none" xmlns="http://www.w3.org/2000/svg">
<g clip-path="url(#clip0)">
<path d="M25.0012 50C18.2316 50 11.4628 50 4.69482 50C1.77883 50 0 48.2212 0 45.3064C0 38.5763 0 31.8423 0 25.1044C0 23.5786 1.11047 22.4252 2.56092 22.4147C3.23263 22.407 3.88077 22.6621 4.36702 23.1256C4.85327 23.5891 5.13913 24.2243 5.16361 24.8956C5.1903 25.7925 5.17057 26.6907 5.17057 27.5888C5.17057 33.1585 5.17754 38.7225 5.15897 44.2899C5.15897 44.7401 5.26688 44.8387 5.7113 44.8387C18.5697 44.8248 31.4276 44.8248 44.2852 44.8387C44.7285 44.8387 44.8399 44.7436 44.8387 44.291C44.8217 37.8974 44.8186 31.5042 44.8294 25.1114C44.8294 23.6029 45.9086 22.453 47.3277 22.4159C48.8164 22.3764 49.9896 23.5205 49.9965 25.0487C50.007 27.7071 49.9965 30.3644 49.9965 33.0228C49.9965 37.1351 49.9965 41.2474 49.9965 45.3597C49.9965 48.2003 48.1968 50.0012 45.3551 50.0012C38.5739 50.002 31.7893 50.0016 25.0012 50Z" fill="#E19B19"/>
<path d="M22.4147 30.6974V30.1114C22.4147 20.9886 22.4147 11.8655 22.4147 2.74194C22.4147 1.14992 23.5356 -0.0139228 25.0325 1.55206e-06C25.686 0.0083961 26.3122 0.263446 26.7856 0.714043C27.259 1.16464 27.5447 1.7775 27.5853 2.4298C27.5969 2.64447 27.5911 2.86029 27.5911 3.07612V30.8088C27.7779 30.6312 27.9032 30.5175 28.0228 30.3992C29.6473 28.7747 31.2613 27.1339 32.9044 25.5256C34.3467 24.11 36.6675 24.6797 37.2233 26.5723C37.5134 27.5656 37.2662 28.4521 36.5271 29.1901C35.3992 30.3226 34.2698 31.4535 33.1388 32.583C31.1074 34.6144 29.0752 36.6458 27.0423 38.6772C25.7241 39.993 24.2678 39.9907 22.9462 38.6702C19.7946 35.5233 16.6462 32.3733 13.5008 29.2202C12.0423 27.7524 12.5667 25.4317 14.4825 24.8503C15.5268 24.5359 16.4215 24.8248 17.1838 25.5918C18.7666 27.1823 20.3524 28.7704 21.9413 30.3562C22.0607 30.4879 22.173 30.6258 22.2778 30.7693L22.4147 30.6974Z" fill="#E19B19"/>
</g>
<defs>
<clipPath id="clip0">
<rect width="50.0046" height="50" fill="white"/>
</clipPath>
</defs>
</svg>
