<svg width="50" height="50" viewBox="0 0 50 50" fill="none" xmlns="http://www.w3.org/2000/svg">
<g clip-path="url(#clip0)">
<path d="M19.1126 50H18.9209C18.5718 49.8852 18.2227 49.7656 17.8711 49.6557C13.7573 48.363 10.2368 46.1242 7.27541 42.9968C4.07453 39.6481 1.81891 35.5105 0.738549 31.0058C-0.151344 27.3572 -0.257545 23.6816 0.531029 19.9988C1.72121 14.4433 4.42507 9.73021 8.80129 6.12303C16.3379 -0.0891284 24.8511 -1.68947 33.9624 1.85789C42.5867 5.21971 47.7381 11.7346 49.5349 20.8435C49.7132 21.7468 49.7901 22.6745 49.9134 23.5827V26.2158C49.8865 26.3891 49.845 26.5637 49.834 26.7383C49.684 29.1367 49.1864 31.5006 48.357 33.7561C46.9854 37.574 44.7504 41.0235 41.8262 43.8354C39.6106 45.9741 37.1008 47.6843 34.2395 48.8403C33.1787 49.27 32.0838 49.613 31.0034 49.9963H30.8093C30.8093 46.6015 30.7984 43.2055 30.8093 39.8108C30.8093 38.3642 30.4785 37.0483 29.5484 35.9118C29.3579 35.6787 29.198 35.4236 29.0601 35.2221C30.354 34.8401 31.637 34.5459 32.8565 34.0845C37.2107 32.4353 39.8841 28.4839 39.8474 23.8305C39.8291 21.6333 39.0955 19.6533 37.8711 17.8662C37.3633 17.1252 37.1082 16.4416 37.4939 15.5847C37.5891 15.3723 37.5684 15.1062 37.5928 14.8645C37.7313 13.3499 37.5131 11.824 36.9556 10.4089C35.3504 10.3454 33.9954 10.9509 32.6831 11.6833C32.1155 11.9983 31.5418 12.3047 30.9961 12.6526C30.8359 12.7581 30.654 12.8265 30.4639 12.8527C30.2738 12.8789 30.0803 12.8622 29.8975 12.8039C26.7432 11.9824 23.573 11.9153 20.4102 12.7246C20.1043 12.8185 19.7813 12.8426 19.4649 12.7953C19.1484 12.748 18.8466 12.6304 18.5816 12.4512C16.8726 11.3891 15.138 10.3454 12.9785 10.3845C12.2388 12.2961 12.0325 14.2761 12.6026 16.3037C12.6565 16.4622 12.6687 16.6319 12.6382 16.7965C12.6076 16.9611 12.5352 17.1151 12.428 17.2436C10.1856 20.3003 9.57644 23.6975 10.6201 27.3071C11.6931 31.0034 14.3299 33.23 17.9102 34.4031C18.8697 34.7168 19.8633 34.9219 20.8533 35.1782C20.8395 35.2241 20.8207 35.2683 20.7971 35.31C20.0952 36.2683 19.3946 37.2265 19.2407 38.4582C19.228 38.5103 19.2036 38.5588 19.1694 38.6001C19.1351 38.6413 19.0919 38.6742 19.043 38.6963C17.8955 39.0979 16.7591 39.1626 15.7849 38.3117C15.354 37.9346 15.072 37.3938 14.6863 36.9604C14.0503 36.2524 13.4448 35.4956 12.7149 34.8974C12.2718 34.5297 11.7592 34.2549 11.2076 34.0897C10.656 33.9244 10.0767 33.872 9.50442 33.9355C9.59231 34.9121 9.67654 35.8642 9.76199 36.8152C10.0953 36.823 10.423 36.9027 10.7228 37.0486C11.0226 37.1946 11.2873 37.4035 11.499 37.6611C11.8975 38.1298 12.2715 38.6187 12.6197 39.126C13.9417 41.0437 15.7434 41.9995 18.0847 41.886C18.4168 41.8689 18.7464 41.8066 19.1126 41.7639V50Z" fill="white"/>
</g>
<defs>
<clipPath id="clip0">
<rect width="49.9133" height="50" fill="white"/>
</clipPath>
</defs>
</svg>
